<?xml version="1.0" standalone="no"?>
<!DOCTYPE svg PUBLIC "-//W3C//DTD SVG 20010904//EN"
 "http://www.w3.org/TR/2001/REC-SVG-20010904/DTD/svg10.dtd">
<svg version="1.0" xmlns="http://www.w3.org/2000/svg"
 width="809.000000pt" height="809.000000pt" viewBox="0 0 809.000000 809.000000"
 preserveAspectRatio="xMidYMid meet">
<metadata>
Created by potrace 1.14, written by Peter Selinger 2001-2017
</metadata>
<g transform="translate(0.000000,809.000000) scale(0.100000,-0.100000)"
fill="#000000" stroke="none">
<path d="M963 6820 c-60 -12 -183 -76 -231 -120 -116 -108 -135 -268 -61 -520
29 -98 95 -233 149 -305 60 -79 179 -190 262 -245 21 -14 38 -28 38 -32 0 -4
-13 -16 -29 -27 -88 -63 -109 -191 -46 -275 47 -63 218 -136 317 -136 45 0
148 43 154 65 4 14 -87 55 -122 55 -35 0 -149 32 -190 53 -16 8 -39 27 -52 42
l-23 26 21 34 c11 18 37 41 57 50 35 17 114 22 134 9 15 -9 59 43 59 70 0 28
-51 76 -80 76 -10 0 -21 4 -24 9 -3 5 -29 21 -58 36 -102 53 -223 152 -292
239 -42 51 -126 211 -126 237 0 8 -6 23 -14 34 -18 27 -46 172 -46 239 0 53
24 123 52 156 22 25 93 70 129 81 111 35 278 16 402 -47 16 -8 33 -14 38 -14
10 0 99 -57 139 -89 14 -11 48 -38 75 -60 28 -21 75 -62 105 -90 30 -28 58
-51 63 -51 4 0 7 -6 7 -14 0 -8 9 -18 20 -21 11 -3 20 -11 20 -16 0 -5 20 -31
45 -57 25 -26 45 -52 45 -59 0 -21 47 -46 75 -39 43 11 57 45 44 105 -17 79 1
334 25 359 8 7 46 -9 46 -19 0 -12 80 -122 92 -127 4 -2 8 -11 8 -20 0 -8 6
-23 14 -31 43 -50 136 -264 136 -313 0 -49 15 -78 40 -78 28 0 81 35 111 72
26 34 141 114 259 182 36 20 72 42 80 47 8 5 22 12 30 15 8 3 51 23 95 44 73
35 183 77 324 125 59 20 152 41 251 57 36 5 99 16 140 23 117 21 465 9 651
-21 52 -8 105 -16 119 -18 47 -6 145 -28 162 -37 10 -5 24 -9 33 -9 18 0 160
-46 202 -65 17 -8 36 -15 41 -15 6 0 32 -11 59 -24 26 -13 82 -40 123 -60 93
-43 195 -99 218 -118 9 -7 31 -20 47 -28 17 -8 35 -19 41 -25 12 -11 110 -73
179 -115 23 -14 52 -33 66 -43 80 -60 196 -137 207 -137 6 0 12 -4 12 -8 0 -9
126 -92 141 -92 5 0 9 -3 9 -8 0 -4 43 -39 96 -77 90 -66 160 -121 229 -182
17 -15 53 -45 80 -68 51 -42 165 -158 227 -230 51 -60 148 -190 148 -199 0 -5
13 -25 29 -45 15 -20 43 -61 60 -91 18 -30 57 -89 86 -130 30 -41 59 -84 64
-96 5 -11 20 -33 33 -50 30 -36 158 -222 158 -229 0 -6 39 -64 50 -75 3 -3 14
-21 24 -40 11 -19 29 -53 41 -76 13 -22 26 -51 30 -65 4 -13 13 -31 20 -39 7
-8 25 -55 39 -105 15 -49 32 -100 37 -113 39 -97 89 -492 83 -653 -1 -30 -2
-73 -3 -97 -1 -38 -4 -44 -30 -53 -36 -13 -51 -52 -47 -122 2 -30 -2 -51 -11
-58 -17 -15 -17 -39 1 -64 20 -29 14 -208 -14 -420 -5 -44 -14 -91 -20 -105
-8 -23 -45 -161 -58 -220 -2 -14 -11 -34 -18 -45 -8 -11 -14 -26 -14 -33 0 -8
-6 -28 -14 -45 -17 -39 -45 -121 -56 -164 -6 -26 -4 -37 15 -59 19 -22 28 -25
54 -19 17 4 43 21 59 40 28 35 83 173 108 275 8 30 19 71 26 90 6 19 13 44 14
55 2 11 10 49 19 85 25 106 35 225 35 401 0 157 1 169 24 210 13 24 29 63 35
87 6 23 16 60 22 83 11 43 15 434 5 467 -4 11 -10 48 -15 83 -14 104 -50 299
-56 309 -3 5 -13 35 -21 66 -8 32 -21 71 -28 88 -8 17 -18 42 -22 56 -13 47
-78 175 -137 270 -32 52 -64 104 -70 115 -7 11 -18 24 -24 28 -7 4 -13 12 -13
18 0 5 -32 56 -70 112 -94 135 -143 207 -155 226 -5 9 -22 32 -37 52 -16 20
-28 40 -28 44 0 5 -12 24 -27 44 -16 20 -35 48 -43 62 -52 90 -203 289 -220
289 -6 0 -10 5 -10 11 0 13 -146 158 -230 228 -36 30 -69 59 -75 66 -5 6 -39
34 -75 61 -35 27 -71 54 -80 61 -85 65 -152 113 -185 133 -22 13 -43 28 -46
33 -4 5 -16 14 -27 20 -12 7 -83 54 -157 105 -75 50 -140 92 -145 92 -5 0 -10
3 -12 8 -3 6 -109 77 -163 109 -11 7 -60 36 -109 65 -48 29 -133 77 -188 105
-55 29 -105 56 -112 61 -29 21 -272 110 -376 137 -36 9 -85 23 -110 30 -199
59 -737 89 -985 55 -208 -28 -448 -96 -584 -165 -37 -18 -86 -39 -111 -46 -25
-7 -49 -17 -55 -21 -5 -5 -35 -21 -65 -37 -136 -70 -190 -101 -259 -149 -41
-29 -78 -52 -81 -52 -4 0 -22 30 -39 68 -48 99 -72 145 -87 163 -8 8 -14 20
-14 25 0 6 -16 29 -35 51 -19 23 -35 44 -35 47 0 3 -8 15 -17 27 -57 70 -80
92 -120 116 -40 23 -48 25 -82 14 -68 -20 -103 -83 -127 -228 -13 -77 -20
-101 -30 -95 -7 4 -43 36 -81 72 -95 92 -168 150 -186 150 -9 0 -20 7 -25 16
-19 33 -235 136 -334 158 -47 11 -222 14 -265 6z"/>
<path d="M1240 4805 c-6 -7 -12 -20 -14 -27 -1 -7 -9 -24 -18 -36 -9 -13 -59
-114 -111 -225 -137 -292 -159 -341 -212 -468 -25 -63 -57 -136 -70 -164 -19
-43 -50 -127 -96 -260 -6 -16 -15 -48 -20 -70 -6 -21 -14 -44 -19 -50 -12 -14
-100 -249 -100 -266 0 -8 -7 -24 -14 -35 -8 -12 -20 -42 -27 -68 -6 -25 -15
-49 -20 -52 -5 -3 -9 -17 -9 -32 0 -15 -6 -39 -14 -53 -15 -29 -47 -129 -70
-222 -8 -31 -18 -61 -21 -67 -3 -5 -8 -28 -11 -52 -4 -24 -10 -50 -15 -59 -4
-9 -11 -46 -15 -83 -6 -56 -4 -69 11 -86 37 -40 98 -15 114 48 6 20 20 78 32
127 12 50 26 101 31 115 5 14 11 36 13 50 2 14 11 45 19 70 38 108 117 348
125 380 5 19 23 69 39 110 17 41 37 95 45 120 8 25 24 70 35 100 11 30 25 78
32 105 7 28 17 55 21 60 13 17 69 175 63 175 -4 0 -2 6 4 13 5 6 24 50 42 97
18 47 39 99 46 117 8 17 14 36 14 42 0 6 4 19 10 29 5 9 23 51 40 92 17 41 44
100 59 130 15 30 36 80 46 110 9 30 26 71 35 90 58 113 77 175 59 196 -15 18
-43 18 -59 -1z"/>
<path d="M3404 4315 c-38 -17 -74 -60 -74 -88 0 -36 38 -84 71 -91 84 -17 122
8 114 74 -3 18 0 41 6 52 24 44 -57 80 -117 53z"/>
<path d="M5430 3993 c-32 -12 -60 -47 -60 -75 0 -60 51 -101 137 -111 40 -5
44 -2 86 44 53 58 60 74 47 99 -19 35 -155 63 -210 43z"/>
<path d="M4665 3923 c-49 -3 -367 -51 -415 -63 -19 -5 -70 -15 -113 -22 -131
-21 -163 -55 -111 -117 21 -25 52 -115 54 -155 0 -5 -36 -6 -82 -3 -116 8
-186 -4 -212 -34 -23 -26 -36 -93 -56 -279 -17 -154 -21 -180 -29 -180 -3 0
-37 6 -76 13 -64 12 -235 14 -345 4 -182 -16 -259 -45 -260 -98 0 -40 50 -50
155 -33 38 6 177 6 310 -1 112 -6 216 -23 233 -38 10 -9 35 -15 62 -15 25 1
59 -6 77 -15 18 -10 38 -17 46 -17 19 0 125 -49 132 -60 12 -19 7 -98 -8 -127
-13 -25 -73 -88 -151 -158 -22 -20 -98 -78 -134 -103 -21 -14 -65 -44 -98 -68
-34 -23 -79 -52 -100 -63 -102 -54 -125 -108 -63 -145 31 -18 45 -17 114 12
50 20 275 170 275 183 0 5 5 9 11 9 6 0 36 20 67 44 97 75 199 192 227 260 27
65 15 180 -26 237 -23 33 -126 95 -182 110 -23 6 -49 14 -57 19 -9 4 -30 11
-48 15 l-33 7 6 61 c3 34 8 69 10 77 2 8 7 47 10 85 3 39 9 95 13 125 7 53 8
55 42 60 35 6 122 -6 260 -34 155 -32 225 -48 241 -56 9 -5 36 -11 60 -15 24
-3 67 -12 94 -19 74 -20 292 -76 355 -91 30 -7 91 -24 136 -39 44 -14 109 -32
145 -40 36 -7 74 -18 85 -23 10 -6 44 -18 74 -26 198 -58 202 -60 195 -87 -8
-35 -33 -234 -45 -365 -5 -60 -19 -186 -31 -280 -11 -93 -25 -208 -30 -255 -4
-47 -15 -139 -23 -205 -22 -169 -36 -309 -38 -385 l-3 -65 -75 2 c-41 1 -100
6 -130 11 -30 6 -91 16 -135 22 -44 7 -84 15 -90 19 -5 4 -26 8 -45 10 -19 1
-66 11 -105 21 -38 11 -88 22 -110 25 -22 3 -76 15 -120 26 -44 11 -91 23
-105 26 -70 13 -151 35 -205 54 -33 12 -76 25 -95 30 -40 8 -151 45 -195 64
-57 25 -110 44 -190 68 l-80 23 -7 63 c-8 68 -20 91 -49 91 -23 0 -59 -55 -59
-89 0 -23 -2 -23 -47 -16 -27 4 -61 8 -78 8 -35 1 -343 -13 -396 -18 -19 -2
-141 -6 -270 -10 -129 -4 -236 -9 -239 -10 -5 -3 -232 -15 -370 -20 -391 -13
-468 -16 -490 -20 -40 -8 -160 -13 -405 -20 -126 -4 -255 -8 -285 -11 -90 -6
-686 -22 -912 -23 l-98 -1 0 -66 0 -65 193 5 c105 3 311 8 457 11 146 4 299 9
340 12 125 8 161 10 260 12 52 1 165 6 250 11 228 14 333 20 450 25 58 3 123
7 145 9 57 6 217 15 375 22 158 6 209 10 270 18 25 3 106 8 180 12 74 4 149 8
165 10 17 1 86 7 155 13 69 6 139 13 155 16 17 2 59 7 95 10 36 4 70 7 75 8 6
1 11 -12 13 -30 4 -37 51 -83 85 -83 27 0 116 -27 131 -39 6 -5 29 -12 51 -16
22 -4 49 -13 60 -20 11 -7 36 -16 55 -20 19 -4 40 -11 45 -15 13 -10 125 -46
200 -64 33 -8 85 -22 115 -30 30 -9 88 -23 128 -31 39 -8 105 -22 145 -30 39
-8 83 -17 97 -21 14 -3 70 -14 125 -25 55 -10 109 -21 120 -24 46 -12 335 -53
405 -57 44 -3 45 -3 52 -48 13 -79 79 -102 94 -32 13 64 14 64 101 67 64 2 90
8 124 26 23 13 42 29 41 34 -1 6 -38 16 -84 23 -159 25 -153 22 -150 62 1 19
7 102 12 183 6 82 15 179 20 215 11 74 47 412 55 507 2 33 9 95 14 138 6 43
14 151 17 240 4 89 8 169 10 177 1 8 3 29 3 46 l1 31 61 -14 c54 -12 64 -12
85 2 42 27 40 34 50 -155 11 -209 5 -615 -11 -670 -2 -8 -7 -51 -10 -95 -6
-83 -13 -152 -20 -195 -2 -14 -7 -54 -10 -90 -3 -36 -8 -72 -11 -80 -3 -8 -9
-55 -14 -105 -8 -97 3 -135 41 -135 19 0 49 46 49 75 0 25 15 17 27 -15 32
-85 67 7 83 220 17 218 17 219 20 228 6 16 8 29 9 85 l1 59 40 -51 c136 -172
301 -271 353 -213 15 17 17 24 7 42 -14 27 -67 74 -123 110 -42 28 -135 121
-172 174 -11 16 -29 40 -41 55 -34 42 -40 59 -36 96 3 29 8 35 28 35 23 0 24
3 24 59 0 32 5 73 11 92 20 57 104 124 259 205 14 7 38 15 54 18 26 5 55 30
56 49 0 5 -5 17 -11 28 -23 44 -147 7 -323 -96 -47 -27 -52 -25 -48 16 1 3 2
34 3 70 1 35 5 89 10 119 23 158 42 325 40 365 -2 35 -27 130 -43 163 -14 27
-53 39 -73 22 -11 -9 -50 -12 -124 -11 l-108 2 -17 -35 c-9 -19 -16 -39 -16
-44 0 -6 -14 -51 -31 -101 -16 -49 -31 -99 -32 -109 -1 -17 -4 -18 -22 -8 -11
6 -22 13 -25 16 -18 20 -133 87 -207 121 -156 72 -168 77 -198 83 -26 6 -181
62 -240 87 -11 4 -48 17 -83 28 -34 11 -66 22 -71 25 -5 3 0 43 11 88 13 56
17 101 14 138 -3 30 -6 69 -6 87 0 22 -8 38 -27 53 -26 21 -31 21 -168 13z
m92 -170 c-9 -83 -29 -163 -40 -163 -6 0 -24 5 -41 10 -139 46 -310 74 -391
65 -53 -5 -69 -11 -84 -32 l-20 -25 -7 29 c-4 15 -13 36 -22 45 -17 20 -12 23
53 33 22 3 76 12 120 20 170 31 194 35 246 41 44 4 147 17 182 23 5 0 7 -20 4
-46z m-352 -197 c39 -8 88 -19 109 -24 22 -6 52 -8 68 -5 17 3 44 -2 72 -16
43 -20 72 -28 176 -53 25 -6 50 -14 55 -18 6 -4 35 -15 65 -24 30 -10 64 -21
75 -26 91 -39 120 -50 136 -50 11 0 61 -16 112 -36 91 -36 125 -54 77 -40 -33
10 -119 30 -209 50 -40 9 -78 19 -85 24 -6 4 -20 8 -31 9 -34 3 -107 21 -175
42 -36 12 -73 21 -83 21 -9 0 -25 4 -35 10 -9 5 -53 16 -97 24 -85 15 -325 73
-362 87 -15 5 -21 14 -17 24 8 19 54 19 149 1z m1537 -187 c-2 -7 -11 -31 -21
-54 -16 -37 -40 -96 -62 -152 -7 -19 -16 -23 -54 -23 -49 0 -52 4 -30 46 8 16
15 38 15 50 0 11 4 24 8 30 5 5 14 35 21 67 l13 58 56 -5 c40 -3 56 -9 54 -17z
m98 -131 c-6 -34 -16 -72 -20 -83 -5 -11 -12 -49 -15 -84 -3 -35 -8 -68 -11
-72 -5 -8 -6 -24 -19 -201 -4 -49 -11 -88 -16 -88 -5 0 -9 3 -10 8 0 4 -2 16
-4 27 -1 11 -6 52 -9 90 -3 39 -8 79 -11 90 -2 11 -9 40 -15 65 -10 40 -9 46
11 61 17 13 21 23 16 47 -4 21 -1 37 12 54 10 13 35 54 56 91 20 37 39 66 42
63 2 -2 -1 -33 -7 -68z m-155 -1502 c0 -33 -15 -46 -15 -14 0 20 7 38 15 38 0
0 1 -11 0 -24z m-5 -80 c0 -3 -4 -8 -10 -11 -5 -3 -10 -1 -10 4 0 6 5 11 10
11 6 0 10 -2 10 -4z"/>
<path d="M6033 1680 c-25 -10 -37 -41 -28 -70 9 -29 90 -67 171 -79 38 -6 98
-15 134 -20 36 -5 112 -13 170 -16 58 -3 121 -7 140 -9 87 -9 243 -16 470 -22
135 -3 306 -8 380 -10 74 -2 244 -6 378 -9 l242 -4 0 69 0 70 -147 1 c-260 3
-506 11 -928 31 -126 6 -252 12 -280 13 -168 6 -321 18 -395 30 -229 37 -268
40 -307 25z"/>
</g>
</svg>
